<mxfile host="app.diagrams.net" agent="Mozilla/5.0 (Windows NT 10.0; Win64; x64) AppleWebKit/537.36 (KHTML, like Gecko) Chrome/130.0.0.0 Safari/537.36" version="24.8.6">
  <diagram name="Página-1" id="GpBoX22cHrl5iIRO67_G">
    <mxGraphModel dx="2062" dy="693" grid="1" gridSize="10" guides="1" tooltips="1" connect="1" arrows="1" fold="1" page="1" pageScale="1" pageWidth="827" pageHeight="1169" math="0" shadow="0">
      <root>
        <mxCell id="0" />
        <mxCell id="1" parent="0" />
        <mxCell id="3ODfwVuLOLjCi4b-5whw-22" style="rounded=0;orthogonalLoop=1;jettySize=auto;html=1;endArrow=none;endFill=0;exitX=1;exitY=0.3333333333333333;exitDx=0;exitDy=0;exitPerimeter=0;" edge="1" parent="1" source="3ODfwVuLOLjCi4b-5whw-3" target="3ODfwVuLOLjCi4b-5whw-14">
          <mxGeometry relative="1" as="geometry" />
        </mxCell>
        <mxCell id="3ODfwVuLOLjCi4b-5whw-24" style="rounded=0;orthogonalLoop=1;jettySize=auto;html=1;endArrow=none;endFill=0;exitX=1;exitY=1;exitDx=0;exitDy=0;exitPerimeter=0;" edge="1" parent="1" source="3ODfwVuLOLjCi4b-5whw-3" target="3ODfwVuLOLjCi4b-5whw-16">
          <mxGeometry relative="1" as="geometry" />
        </mxCell>
        <mxCell id="3ODfwVuLOLjCi4b-5whw-3" value="ADMINISTRADOR" style="shape=umlActor;html=1;verticalLabelPosition=bottom;verticalAlign=top;align=center;" vertex="1" parent="1">
          <mxGeometry x="-80" y="290" width="30" height="60" as="geometry" />
        </mxCell>
        <mxCell id="3ODfwVuLOLjCi4b-5whw-14" value="Gerenciar plantões" style="ellipse;whiteSpace=wrap;html=1;" vertex="1" parent="1">
          <mxGeometry y="170" width="140" height="70" as="geometry" />
        </mxCell>
        <mxCell id="3ODfwVuLOLjCi4b-5whw-16" value="Cadastrar plantões" style="ellipse;whiteSpace=wrap;html=1;" vertex="1" parent="1">
          <mxGeometry x="-10" y="420" width="140" height="70" as="geometry" />
        </mxCell>
        <mxCell id="3ODfwVuLOLjCi4b-5whw-18" value="&amp;nbsp; &amp;nbsp;&lt;div&gt;&lt;span style=&quot;background-color: initial;&quot;&gt;Verificar disponibilidade do médico&lt;/span&gt;&lt;/div&gt;&lt;div&gt;&lt;div&gt;&lt;br&gt;&lt;/div&gt;&lt;/div&gt;" style="ellipse;whiteSpace=wrap;html=1;" vertex="1" parent="1">
          <mxGeometry x="240" y="420" width="140" height="70" as="geometry" />
        </mxCell>
        <mxCell id="3ODfwVuLOLjCi4b-5whw-19" value="&amp;lt;&amp;lt;include&amp;gt;&amp;gt;" style="edgeStyle=none;html=1;endArrow=open;verticalAlign=bottom;dashed=1;labelBackgroundColor=none;rounded=0;" edge="1" parent="1">
          <mxGeometry width="160" relative="1" as="geometry">
            <mxPoint x="239" y="456" as="sourcePoint" />
            <mxPoint x="130" y="456" as="targetPoint" />
          </mxGeometry>
        </mxCell>
        <mxCell id="3ODfwVuLOLjCi4b-5whw-27" value="consultar plantao" style="ellipse;whiteSpace=wrap;html=1;" vertex="1" parent="1">
          <mxGeometry x="420" y="620" width="140" height="70" as="geometry" />
        </mxCell>
        <mxCell id="3ODfwVuLOLjCi4b-5whw-30" value="aceitar plantao" style="ellipse;whiteSpace=wrap;html=1;" vertex="1" parent="1">
          <mxGeometry x="110" y="615" width="140" height="70" as="geometry" />
        </mxCell>
        <mxCell id="3ODfwVuLOLjCi4b-5whw-44" style="edgeStyle=orthogonalEdgeStyle;rounded=0;orthogonalLoop=1;jettySize=auto;html=1;entryX=0;entryY=0.5;entryDx=0;entryDy=0;endArrow=none;endFill=0;" edge="1" parent="1" source="3ODfwVuLOLjCi4b-5whw-32" target="3ODfwVuLOLjCi4b-5whw-30">
          <mxGeometry relative="1" as="geometry" />
        </mxCell>
        <mxCell id="3ODfwVuLOLjCi4b-5whw-32" value="MÉDICO" style="shape=umlActor;html=1;verticalLabelPosition=bottom;verticalAlign=top;align=center;" vertex="1" parent="1">
          <mxGeometry x="-80" y="620" width="30" height="60" as="geometry" />
        </mxCell>
        <mxCell id="3ODfwVuLOLjCi4b-5whw-45" value="&amp;lt;&amp;lt;include&amp;gt;&amp;gt;" style="edgeStyle=none;html=1;endArrow=open;verticalAlign=bottom;dashed=1;labelBackgroundColor=none;rounded=0;entryX=0.013;entryY=0.392;entryDx=0;entryDy=0;entryPerimeter=0;" edge="1" parent="1" target="3ODfwVuLOLjCi4b-5whw-27">
          <mxGeometry width="160" relative="1" as="geometry">
            <mxPoint x="250" y="649.41" as="sourcePoint" />
            <mxPoint x="410" y="649.41" as="targetPoint" />
          </mxGeometry>
        </mxCell>
        <mxCell id="3ODfwVuLOLjCi4b-5whw-46" value="Categorizar infos dos plantões" style="ellipse;whiteSpace=wrap;html=1;" vertex="1" parent="1">
          <mxGeometry x="274" y="170" width="140" height="70" as="geometry" />
        </mxCell>
        <mxCell id="3ODfwVuLOLjCi4b-5whw-47" value="&amp;lt;&amp;lt;include&amp;gt;&amp;gt;" style="edgeStyle=none;html=1;endArrow=open;verticalAlign=bottom;dashed=1;labelBackgroundColor=none;rounded=0;entryX=0.043;entryY=0.486;entryDx=0;entryDy=0;entryPerimeter=0;" edge="1" parent="1" target="3ODfwVuLOLjCi4b-5whw-46">
          <mxGeometry width="160" relative="1" as="geometry">
            <mxPoint x="140" y="204.41000000000003" as="sourcePoint" />
            <mxPoint x="270" y="204" as="targetPoint" />
          </mxGeometry>
        </mxCell>
      </root>
    </mxGraphModel>
  </diagram>
</mxfile>
